<svg width="18" height="18" xmlns="http://www.w3.org/2000/svg">

 <g>
  <title>background</title>
  <rect fill="none" id="canvas_background" height="20" width="20" y="-1" x="-1"/>
 </g>
 <g>
  <title>Layer 1</title>
  <path stroke="null" fill="#20c997" id="svg_1" d="m15.511022,3.000873c-0.14213,0.006128 -0.283717,0.044067 -0.413554,0.094491l-0.000408,0c-0.126522,0.049385 -0.939369,0.386143 -2.124222,0.877832c-1.184855,0.491689 -2.724863,1.13179 -4.251714,1.766706c-3.053705,1.269831 -6.05442,2.51896 -6.05442,2.51896l0.0135,-0.004909c0,0 -0.16745,0.05486 -0.335016,0.168121c-0.083783,0.056631 -0.171746,0.128983 -0.241344,0.229481c-0.069596,0.100496 -0.118578,0.238131 -0.099809,0.385737c0.033874,0.26638 0.215441,0.44062 0.365286,0.545271c0.149845,0.104651 0.293703,0.154214 0.293703,0.154214l0.001636,0.000817l2.934967,0.970279c0.048296,0.168083 0.832789,2.89983 1.017729,3.476556c0.096734,0.301994 0.186197,0.469637 0.269976,0.57513c0.041887,0.052746 0.083255,0.0902 0.124761,0.115762c0.017844,0.010989 0.035527,0.018422 0.052767,0.024952c0.002811,0.001068 0.005814,0.003144 0.008591,0.004092c0.005917,0.002019 0.009075,0.001998 0.016361,0.00368c0.276516,0.10228 0.510092,-0.076084 0.510092,-0.076084l0.006545,-0.004907l2.01214,-1.77039l2.975874,2.386425l0.02618,0.011454c0.477554,0.205719 0.872267,0.092703 1.101583,-0.088357c0.229316,-0.18106 0.322337,-0.418053 0.322337,-0.418053l0.007362,-0.018407l2.146719,-10.858357c0.05261,-0.232281 0.057903,-0.427258 0.012273,-0.594767c-0.045632,-0.167507 -0.15177,-0.303707 -0.283476,-0.380011c-0.131706,-0.076306 -0.274288,-0.101847 -0.416417,-0.095719zm0.011454,0.426234c0.083362,-0.003586 0.153621,0.007866 0.195119,0.031908c0.041496,0.024041 0.068465,0.051605 0.089174,0.127624c0.020709,0.076021 0.025704,0.20434 -0.016772,0.391876l-0.000819,0.002863l-2.138128,10.816225c-0.003144,0.00724 -0.058227,0.136789 -0.188574,0.239706c-0.131427,0.103771 -0.310307,0.180448 -0.660214,0.035587l-4.783487,-3.836114a0.209457,0.209457 0 0 0 -0.154622,-0.06504a0.209457,0.209457 0 0 0 -0.211891,0.204118l-0.545269,2.921469c-0.027878,-0.064201 -0.05792,-0.13953 -0.090401,-0.240933c-0.168799,-0.526388 -0.92785,-3.162092 -1.002593,-3.421743l7.507789,-4.860798a0.209457,0.209457 0 0 0 0.206573,0.161986a0.209457,0.209457 0 0 0 0.206981,-0.254842c0.005565,-0.06409 0.000197,-0.127119 -0.027815,-0.189801c-0.0452,-0.101135 -0.152208,-0.162711 -0.228252,-0.17712c-0.152092,-0.02882 -0.25116,0.026588 -0.25116,0.026588l-0.020862,0.007772l-7.667323,4.964697l-2.938649,-0.971505l-0.000817,-0.000408c-0.000779,-0.00027 -0.093096,-0.033583 -0.191439,-0.102266c-0.098755,-0.068969 -0.177191,-0.158484 -0.189391,-0.254431c-0.004268,-0.033554 0.002178,-0.05629 0.028634,-0.094491c0.026454,-0.038201 0.0755,-0.08336 0.131306,-0.121081c0.111613,-0.075441 0.234797,-0.118216 0.234797,-0.118216l0.006545,-0.002455l0.006955,-0.002863c0,0 3.000401,-1.249169 6.05401,-2.518958c1.526803,-0.634897 3.067042,-1.274686 4.251714,-1.7663c1.184671,-0.491613 2.030736,-0.841426 2.11563,-0.874559c0.093421,-0.036281 0.189885,-0.054908 0.273249,-0.058495zm-2.380699,2.655175l-0.167712,0.084264l-0.033135,0.184894l0.128445,0.137032l0.072402,0.012681l0.167712,-0.083856l0.033133,-0.184892l-0.128032,-0.137034l-0.072813,-0.01309zm-0.586176,0.565722l-0.167712,0.083856l-0.033133,0.184892l0.128032,0.137034l0.072813,0.01309l0.167712,-0.084264l0.033135,-0.184484l-0.128445,-0.137034l-0.072402,-0.01309zm-0.586584,0.565314l-0.167712,0.084264l-0.033133,0.184484l0.128032,0.137034l0.072813,0.01309l0.167712,-0.083856l0.033133,-0.184892l-0.128032,-0.137034l-0.072813,-0.01309zm-0.586176,0.565722l-0.168121,0.083856l-0.032724,0.184892l0.128035,0.137034l0.07281,0.01309l0.167712,-0.084264l0.033135,-0.184484l-0.128445,-0.137442l-0.072402,-0.012681zm-0.586584,0.565314l-0.167712,0.084264l-0.033133,0.184484l0.128032,0.137034l0.072813,0.01309l0.167712,-0.083856l0.033133,-0.184892l-0.128032,-0.137034l-0.072813,-0.01309zm-0.586584,0.565314l-0.167712,0.084264l-0.033135,0.184894l0.128445,0.137032l0.072402,0.012681l0.168121,-0.083856l0.032724,-0.184892l-0.128032,-0.137034l-0.072813,-0.01309zm-0.586176,0.565722l-0.167712,0.083856l-0.033133,0.184892l0.128032,0.137034l0.072813,0.01309l0.167712,-0.084264l0.033135,-0.184484l-0.128445,-0.137034l-0.072402,-0.01309zm-0.586584,0.565314l-0.167712,0.084264l-0.033133,0.184484l0.128443,0.137034l0.072402,0.01309l0.167712,-0.083856l0.033133,-0.184892l-0.128032,-0.137034l-0.072813,-0.01309zm-0.586176,0.565722l-0.168121,0.083856l-0.032724,0.184892l0.128035,0.137034l0.07281,0.01309l0.167712,-0.084264l0.033135,-0.184892l-0.128445,-0.137034l-0.072402,-0.012681zm-0.445052,1.156807l1.281568,1.027545l-1.762616,1.550317l0.481047,-2.577862z"/>
 </g>
</svg>